<?xml version="1.0" encoding="UTF-8" standalone="no"?>
<!-- Created with Inkscape (http://www.inkscape.org/) -->
<svg
   xmlns:dc="http://purl.org/dc/elements/1.1/"
   xmlns:cc="http://web.resource.org/cc/"
   xmlns:rdf="http://www.w3.org/1999/02/22-rdf-syntax-ns#"
   xmlns:svg="http://www.w3.org/2000/svg"
   xmlns="http://www.w3.org/2000/svg"
   xmlns:sodipodi="http://sodipodi.sourceforge.net/DTD/sodipodi-0.dtd"
   xmlns:inkscape="http://www.inkscape.org/namespaces/inkscape"
   width="300"
   height="100"
   id="svg2"
   sodipodi:version="0.32"
   inkscape:version="0.44"
   version="1.0"
   sodipodi:docbase="C:\Documents and Settings\JJB\My Documents\My Pictures\Electronics\Illustrations\Adders"
   sodipodi:docname="Full Adder Blocks.svg">
  <defs
     id="defs4" />
  <sodipodi:namedview
     id="base"
     pagecolor="#ffffff"
     bordercolor="#666666"
     borderopacity="1.0"
     inkscape:pageopacity="0.0"
     inkscape:pageshadow="2"
     inkscape:zoom="4.5166667"
     inkscape:cx="150"
     inkscape:cy="50"
     inkscape:document-units="px"
     inkscape:current-layer="layer1"
     showgrid="true"
     gridspacingx="5px"
     gridspacingy="5px"
     gridtolerance="2px"
     inkscape:grid-points="true"
     gridempspacing="5"
     inkscape:window-width="1440"
     inkscape:window-height="844"
     inkscape:window-x="-4"
     inkscape:window-y="-4"
     showguides="true"
     inkscape:guide-bbox="true"
     width="300px"
     height="100px" />
  <metadata
     id="metadata7">
    <rdf:RDF>
      <cc:Work
         rdf:about="">
        <dc:format>image/svg+xml</dc:format>
        <dc:type
           rdf:resource="http://purl.org/dc/dcmitype/StillImage" />
      </cc:Work>
    </rdf:RDF>
  </metadata>
  <g
     inkscape:label="Layer 1"
     inkscape:groupmode="layer"
     id="layer1">
    <path
       style="font-size:7.19999981px;font-style:normal;font-weight:normal;text-align:center;line-height:125%;writing-mode:lr-tb;text-anchor:middle;fill:black;fill-opacity:1;stroke:none;stroke-width:1px;stroke-linecap:butt;stroke-linejoin:miter;stroke-opacity:1;font-family:Bitstream Vera Sans"
       d="M 152.0711,60.568382 L 152.0711,55.414476 L 152.75313,55.414476 L 152.75313,57.530882 L 155.43204,57.530882 L 155.43204,55.414476 L 156.11407,55.414476 L 156.11407,60.568382 L 155.43204,60.568382 L 155.43204,58.139085 L 152.75313,58.139085 L 152.75313,60.568382 L 152.0711,60.568382 z M 156.68712,60.568382 L 158.66641,55.414476 L 159.40118,55.414476 L 161.51055,60.568382 L 160.7336,60.568382 L 160.13243,59.007445 L 157.97735,59.007445 L 157.41133,60.568382 L 156.68712,60.568382 z M 158.17423,58.451976 L 159.92149,58.451976 L 159.3836,57.024632 C 159.21954,56.591043 159.09766,56.234793 159.01798,55.955882 C 158.95235,56.286355 158.85977,56.61448 158.74024,56.940257 L 158.17423,58.451976 z M 162.03438,60.568382 L 162.03438,55.414476 L 162.71641,55.414476 L 162.71641,59.960179 L 165.25469,59.960179 L 165.25469,60.568382 L 162.03438,60.568382 z M 166.10547,60.568382 L 166.10547,55.414476 L 169.58243,55.414476 L 169.58243,56.022679 L 166.78751,56.022679 L 166.78751,57.618773 L 169.20626,57.618773 L 169.20626,58.226976 L 166.78751,58.226976 L 166.78751,60.568382 L 166.10547,60.568382 z M 148.08087,69.568382 L 150.06016,64.414476 L 150.79493,64.414476 L 152.9043,69.568382 L 152.12735,69.568382 L 151.52618,68.007445 L 149.3711,68.007445 L 148.80508,69.568382 L 148.08087,69.568382 z M 149.56798,67.451976 L 151.31524,67.451976 L 150.77735,66.024632 C 150.61329,65.591042 150.49141,65.234793 150.41173,64.955882 C 150.3461,65.286355 150.25352,65.61448 150.13399,65.940257 L 149.56798,67.451976 z M 153.45626,69.568382 L 153.45626,64.414476 L 155.23165,64.414476 C 155.63243,64.414481 155.93828,64.43909 156.14922,64.488304 C 156.44453,64.556278 156.69649,64.679325 156.90508,64.857445 C 157.17695,65.087137 157.38028,65.380691 157.51505,65.738109 C 157.64981,66.095534 157.71719,66.503932 157.71719,66.963304 C 157.71719,67.354712 157.67149,67.701587 157.58008,68.003929 C 157.48867,68.306274 157.37149,68.556469 157.22852,68.754515 C 157.08555,68.952562 156.9291,69.108422 156.75919,69.222093 C 156.58926,69.335765 156.38418,69.421898 156.14395,69.480491 C 155.90371,69.539085 155.62774,69.568382 155.31602,69.568382 L 153.45626,69.568382 z M 154.13829,68.960179 L 155.23868,68.960179 C 155.57852,68.96018 155.84512,68.928539 156.03848,68.865257 C 156.23184,68.801977 156.38594,68.712914 156.50079,68.59807 C 156.6625,68.436352 156.78848,68.218969 156.87872,67.945921 C 156.96895,67.672876 157.01406,67.341822 157.01407,66.952757 C 157.01406,66.413698 156.92559,65.99944 156.74864,65.709984 C 156.57168,65.420535 156.35664,65.22659 156.10352,65.128148 C 155.92071,65.05784 155.62657,65.022684 155.2211,65.022679 L 154.13829,65.022679 L 154.13829,68.960179 z M 158.65938,69.568382 L 158.65938,64.414476 L 160.43477,64.414476 C 160.83555,64.414481 161.14141,64.43909 161.35235,64.488304 C 161.64766,64.556278 161.89961,64.679325 162.10821,64.857445 C 162.38008,65.087137 162.5834,65.380691 162.71817,65.738109 C 162.85293,66.095534 162.92031,66.503932 162.92032,66.963304 C 162.92031,67.354712 162.87461,67.701587 162.78321,68.003929 C 162.6918,68.306274 162.57461,68.556469 162.43165,68.754515 C 162.28867,68.952562 162.13223,69.108422 161.96231,69.222093 C 161.79239,69.335765 161.58731,69.421898 161.34708,69.480491 C 161.10684,69.539085 160.83086,69.568382 160.51915,69.568382 L 158.65938,69.568382 z M 159.34141,68.960179 L 160.4418,68.960179 C 160.78164,68.96018 161.04825,68.928539 161.24161,68.865257 C 161.43496,68.801977 161.58907,68.712914 161.70391,68.59807 C 161.86563,68.436352 161.9916,68.218969 162.08184,67.945921 C 162.17207,67.672876 162.21719,67.341822 162.21719,66.952757 C 162.21719,66.413698 162.12871,65.99944 161.95176,65.709984 C 161.77481,65.420535 161.55977,65.22659 161.30665,65.128148 C 161.12383,65.05784 160.82969,65.022684 160.42422,65.022679 L 159.34141,65.022679 L 159.34141,68.960179 z M 163.87657,69.568382 L 163.87657,64.414476 L 167.60313,64.414476 L 167.60313,65.022679 L 164.5586,65.022679 L 164.5586,66.601195 L 167.40977,66.601195 L 167.40977,67.205882 L 164.5586,67.205882 L 164.5586,68.960179 L 167.72266,68.960179 L 167.72266,69.568382 L 163.87657,69.568382 z M 168.68243,69.568382 L 168.68243,64.414476 L 170.96758,64.414476 C 171.42696,64.414481 171.77617,64.46077 172.01524,64.553343 C 172.2543,64.645926 172.44531,64.809403 172.58829,65.043773 C 172.73125,65.278152 172.80274,65.537136 172.80274,65.820726 C 172.80274,66.186354 172.68438,66.494557 172.44766,66.745335 C 172.21094,66.996119 171.84531,67.155494 171.35079,67.22346 C 171.53125,67.310181 171.66836,67.395728 171.76212,67.480101 C 171.96133,67.662915 172.15,67.891431 172.32813,68.165648 L 173.22462,69.568382 L 172.3668,69.568382 L 171.68477,68.496116 C 171.48555,68.186743 171.32149,67.950024 171.19258,67.78596 C 171.06367,67.6219 170.94825,67.507056 170.8463,67.441429 C 170.74434,67.375806 170.64063,67.330103 170.53516,67.30432 C 170.45782,67.287916 170.33125,67.279712 170.15547,67.27971 L 169.36446,67.27971 L 169.36446,69.568382 L 168.68243,69.568382 z M 169.36446,66.689085 L 170.83047,66.689085 C 171.14219,66.689088 171.38594,66.656862 171.56172,66.592406 C 171.7375,66.527955 171.8711,66.424831 171.96251,66.283031 C 172.05391,66.141237 172.09961,65.987136 172.09962,65.820726 C 172.09961,65.57698 172.01113,65.376589 171.83419,65.219554 C 171.65723,65.062527 171.37774,64.984012 170.99571,64.984007 L 169.36446,64.984007 L 169.36446,66.689085 z "
       id="text4079" />
    <path
       style="fill:none;fill-opacity:1;stroke:black;stroke-width:1.99999988;stroke-miterlimit:4;stroke-dashoffset:0;stroke-opacity:1"
       d="M 130.5,40.439991 L 190.5,40.439991 L 190.5,81.559788 L 130.5,81.559788 L 130.5,40.439991 z "
       id="rect4085" />
    <path
       style="font-size:12px;font-style:normal;font-weight:normal;fill:black;fill-opacity:1;stroke:none;stroke-width:1px;stroke-linecap:butt;stroke-linejoin:miter;stroke-opacity:1;font-family:Bitstream Vera Sans"
       d="M 134.93164,55.792992 L 138.23047,47.203148 L 139.45508,47.203148 L 142.9707,55.792992 L 141.67578,55.792992 L 140.67383,53.191429 L 137.08203,53.191429 L 136.13867,55.792992 L 134.93164,55.792992 z M 137.41016,52.265648 L 140.32227,52.265648 L 139.42578,49.886742 C 139.15234,49.164092 138.94921,48.570343 138.81641,48.105492 C 138.70703,48.65628 138.55273,49.203154 138.35352,49.746117 L 137.41016,52.265648 z "
       id="text4087" />
    <path
       style="font-size:12px;font-style:normal;font-weight:normal;fill:black;fill-opacity:1;stroke:none;stroke-width:1px;stroke-linecap:butt;stroke-linejoin:miter;stroke-opacity:1;font-family:Bitstream Vera Sans"
       d="M 135.20703,77.068382 L 135.20703,68.478539 L 138.42969,68.478539 C 139.08593,68.478547 139.6123,68.565461 140.00879,68.739281 C 140.40527,68.913117 140.71581,69.180695 140.94043,69.542015 C 141.16503,69.90335 141.27734,70.28128 141.27734,70.675804 C 141.27734,71.042998 141.17773,71.3887 140.97852,71.712914 C 140.77929,72.037137 140.47851,72.298856 140.07617,72.49807 C 140.5957,72.650418 140.99511,72.910183 141.27441,73.277367 C 141.5537,73.644558 141.69335,74.078151 141.69336,74.578148 C 141.69335,74.980494 141.60839,75.354517 141.43848,75.700218 C 141.26855,76.045922 141.05859,76.312524 140.80859,76.500023 C 140.55859,76.687523 140.24511,76.829125 139.86816,76.924828 C 139.49121,77.020531 139.02929,77.068382 138.48242,77.068382 L 135.20703,77.068382 z M 136.34375,72.087914 L 138.20117,72.087914 C 138.70507,72.087918 139.0664,72.054715 139.28516,71.988304 C 139.57421,71.902372 139.79199,71.759794 139.93848,71.56057 C 140.08496,71.361357 140.1582,71.111357 140.1582,70.81057 C 140.1582,70.52542 140.08984,70.274444 139.95313,70.05764 C 139.8164,69.84085 139.62109,69.692413 139.36719,69.612328 C 139.11328,69.532257 138.67773,69.492218 138.06055,69.49221 L 136.34375,69.49221 L 136.34375,72.087914 z M 136.34375,76.05471 L 138.48242,76.05471 C 138.8496,76.054711 139.10742,76.04104 139.25586,76.013695 C 139.51757,75.966821 139.73632,75.888696 139.91211,75.77932 C 140.08788,75.669946 140.23242,75.510767 140.3457,75.301781 C 140.45898,75.092798 140.51562,74.851588 140.51563,74.578148 C 140.51562,74.257838 140.43359,73.979518 140.26953,73.743187 C 140.10546,73.506862 139.87792,73.340847 139.58691,73.24514 C 139.29589,73.149441 138.87695,73.101589 138.33008,73.101585 L 136.34375,73.101585 L 136.34375,76.05471 z "
       id="text4091" />
    <path
       style="font-size:12px;font-style:normal;font-weight:normal;fill:black;fill-opacity:1;stroke:none;stroke-width:1px;stroke-linecap:butt;stroke-linejoin:miter;stroke-opacity:1;font-family:Bitstream Vera Sans"
       d="M 180,72.09375 L 181.07227,72 C 181.12305,72.42969 181.24121,72.782229 181.42676,73.057617 C 181.6123,73.333009 181.90039,73.555665 182.29102,73.725586 C 182.68164,73.895509 183.12109,73.98047 183.60938,73.980469 C 184.04296,73.98047 184.42578,73.916017 184.75781,73.787109 C 185.08984,73.658204 185.33691,73.481447 185.49902,73.256836 C 185.66113,73.032228 185.74218,72.787111 185.74219,72.521484 C 185.74218,72.251956 185.66406,72.016604 185.50781,71.81543 C 185.35156,71.614261 185.09374,71.445316 184.73438,71.308594 C 184.5039,71.218754 183.99414,71.079105 183.20508,70.889648 C 182.41601,70.700199 181.86328,70.521489 181.54688,70.353516 C 181.13672,70.138677 180.83105,69.872075 180.62988,69.553711 C 180.42871,69.235357 180.32812,68.878912 180.32813,68.484375 C 180.32812,68.050788 180.45117,67.645515 180.69727,67.268555 C 180.94336,66.89161 181.30273,66.605477 181.77539,66.410156 C 182.24804,66.214852 182.77343,66.117196 183.35156,66.117188 C 183.98828,66.117196 184.5498,66.219735 185.03613,66.424805 C 185.52245,66.629891 185.89648,66.931649 186.1582,67.330078 C 186.41991,67.728523 186.56054,68.179694 186.58008,68.683594 L 185.49023,68.765625 C 185.43163,68.222663 185.23339,67.812507 184.89551,67.535156 C 184.55761,67.25782 184.05859,67.119148 183.39844,67.119141 C 182.71093,67.119148 182.20996,67.245125 181.89551,67.49707 C 181.58105,67.749031 181.42383,68.052741 181.42383,68.408203 C 181.42383,68.716803 181.53515,68.970709 181.75781,69.169922 C 181.97656,69.369146 182.54785,69.573247 183.47168,69.782227 C 184.3955,69.991216 185.02929,70.173833 185.37305,70.330078 C 185.87304,70.560551 186.24218,70.852543 186.48047,71.206055 C 186.71874,71.559574 186.83788,71.9668 186.83789,72.427734 C 186.83788,72.884768 186.70702,73.315431 186.44531,73.719727 C 186.18359,74.124024 185.80761,74.438477 185.31738,74.663086 C 184.82714,74.887695 184.27539,75 183.66211,75 C 182.88476,75 182.2334,74.886719 181.70801,74.660156 C 181.18262,74.433594 180.77051,74.092774 180.47168,73.637695 C 180.17285,73.182619 180.01562,72.667971 180,72.09375 L 180,72.09375 z "
       id="text4095" />
    <path
       style="font-size:12px;font-style:normal;font-weight:normal;fill:black;fill-opacity:1;stroke:none;stroke-width:1px;stroke-linecap:butt;stroke-linejoin:miter;stroke-opacity:1;font-family:Bitstream Vera Sans"
       d="M 186.45703,51.841797 L 187.59375,52.128906 C 187.35546,53.062502 186.92675,53.774415 186.30762,54.264648 C 185.68847,54.754883 184.93164,55 184.03711,55 C 183.11132,55 182.3584,54.811523 181.77832,54.43457 C 181.19824,54.057618 180.75683,53.51172 180.4541,52.796875 C 180.15137,52.082034 180,51.314457 180,50.494141 C 180,49.599615 180.1709,48.819342 180.5127,48.15332 C 180.85449,47.487312 181.34082,46.981453 181.97168,46.635742 C 182.60254,46.290048 183.29687,46.117196 184.05469,46.117188 C 184.91406,46.117196 185.63671,46.335946 186.22266,46.773438 C 186.80859,47.210945 187.21679,47.826179 187.44727,48.619141 L 186.32813,48.882813 C 186.1289,48.257819 185.83984,47.802741 185.46094,47.517578 C 185.08203,47.232429 184.60546,47.089852 184.03125,47.089844 C 183.37109,47.089852 182.81933,47.248054 182.37598,47.564453 C 181.93261,47.880866 181.62109,48.305671 181.44141,48.838867 C 181.26172,49.372076 181.17187,49.92188 181.17188,50.488281 C 181.17187,51.218754 181.27832,51.856448 181.49121,52.401367 C 181.7041,52.946291 182.03515,53.353517 182.48438,53.623047 C 182.93359,53.892579 183.41992,54.027345 183.94336,54.027344 C 184.58007,54.027345 185.11913,53.843751 185.56055,53.476563 C 186.00195,53.109377 186.30077,52.564455 186.45703,51.841797 L 186.45703,51.841797 z "
       id="text4099" />
    <path
       style="fill:none;fill-opacity:0.75;fill-rule:evenodd;stroke:black;stroke-width:1px;stroke-linecap:butt;stroke-linejoin:miter;stroke-opacity:1"
       d="M 49.488281,30.769922 L 29.488281,30.769922"
       id="path4107" />
    <path
       style="fill:none;fill-opacity:0.75;fill-rule:evenodd;stroke:black;stroke-width:1px;stroke-linecap:butt;stroke-linejoin:miter;stroke-opacity:1"
       d="M 49.488281,50.769922 L 29.488281,50.769922"
       id="path4109" />
    <path
       style="fill:none;fill-opacity:0.75;fill-rule:evenodd;stroke:black;stroke-width:1px;stroke-linecap:butt;stroke-linejoin:miter;stroke-opacity:1"
       d="M 259.5,35.5 C 254.5,25.5 244.5,25.5 244.5,25.5 L 237.5,25.5 C 237.5,25.5 240.5,29.5 240.5,35.5 C 240.5,41.5 237.5,45.5 237.5,45.5 L 244.5,45.5 C 244.5,45.5 254.5,45.5 259.5,35.5"
       id="path4973" />
    <path
       transform="translate(-96.7618,-112.9801)"
       style="fill:black;fill-opacity:1;stroke:none;stroke-width:2;stroke-miterlimit:4;stroke-dashoffset:0;stroke-opacity:1"
       d="M 127.5,143.75 C 127.5,144.44 126.94,145 126.25,145 C 125.56,145 125,144.44 125,143.75 C 125,143.06 125.56,142.5 126.25,142.5 C 126.94,142.5 127.5,143.06 127.5,143.75 z "
       id="path4161" />
    <path
       transform="translate(148.25,-108.25)"
       style="fill:black;fill-opacity:1;stroke:none;stroke-width:2;stroke-miterlimit:4;stroke-dashoffset:0;stroke-opacity:1"
       d="M 127.5,143.75 C 127.5,144.44 126.94,145 126.25,145 C 125.56,145 125,144.44 125,143.75 C 125,143.06 125.56,142.5 126.25,142.5 C 126.94,142.5 127.5,143.06 127.5,143.75 z "
       id="path5036" />
    <path
       transform="translate(-96.7618,-92.9801)"
       style="fill:black;fill-opacity:1;stroke:none;stroke-width:2;stroke-miterlimit:4;stroke-dashoffset:0;stroke-opacity:1"
       d="M 127.5,143.75 C 127.5,144.44 126.94,145 126.25,145 C 125.56,145 125,144.44 125,143.75 C 125,143.06 125.56,142.5 126.25,142.5 C 126.94,142.5 127.5,143.06 127.5,143.75 z "
       id="path5040" />
    <path
       transform="translate(-96.75,-73.25)"
       style="fill:black;fill-opacity:1;stroke:none;stroke-width:2;stroke-miterlimit:4;stroke-dashoffset:0;stroke-opacity:1"
       d="M 127.5,143.75 C 127.5,144.44 126.94,145 126.25,145 C 125.56,145 125,144.44 125,143.75 C 125,143.06 125.56,142.5 126.25,142.5 C 126.94,142.5 127.5,143.06 127.5,143.75 z "
       id="path5042" />
    <path
       style="font-size:12px;font-style:normal;font-weight:normal;fill:black;fill-opacity:1;stroke:none;stroke-width:1px;stroke-linecap:butt;stroke-linejoin:miter;stroke-opacity:1;font-family:Bitstream Vera Sans"
       d="M 18.919922,34.49453 L 22.21875,25.904686 L 23.443359,25.904686 L 26.958984,34.49453 L 25.664063,34.49453 L 24.662109,31.892967 L 21.070313,31.892967 L 20.126953,34.49453 L 18.919922,34.49453 z M 21.398438,30.967186 L 24.310547,30.967186 L 23.414063,28.58828 C 23.140621,27.86563 22.937496,27.271881 22.804688,26.80703 C 22.695309,27.357818 22.541012,27.904693 22.341797,28.447655 L 21.398438,30.967186 z "
       id="text5048" />
    <path
       style="font-size:12px;font-style:normal;font-weight:normal;fill:black;fill-opacity:1;stroke:none;stroke-width:1px;stroke-linecap:butt;stroke-linejoin:miter;stroke-opacity:1;font-family:Bitstream Vera Sans"
       d="M 20.115234,54.49453 L 20.115234,45.904686 L 23.337891,45.904686 C 23.994136,45.904695 24.520503,45.991609 24.916992,46.165428 C 25.31347,46.339264 25.624017,46.606842 25.848633,46.968163 C 26.073235,47.329498 26.18554,47.707427 26.185547,48.101952 C 26.18554,48.469145 26.085931,48.814848 25.886719,49.139061 C 25.687494,49.463285 25.386713,49.725003 24.984375,49.924217 C 25.5039,50.076565 25.903314,50.336331 26.182617,50.703514 C 26.461907,51.070705 26.601555,51.504298 26.601563,52.004295 C 26.601555,52.406641 26.516594,52.780664 26.34668,53.126366 C 26.176751,53.47207 25.96679,53.738671 25.716797,53.92617 C 25.466791,54.113671 25.153314,54.255272 24.776367,54.350975 C 24.399409,54.446678 23.937495,54.49453 23.390625,54.49453 L 20.115234,54.49453 z M 21.251953,49.514061 L 23.109375,49.514061 C 23.613277,49.514066 23.974605,49.480863 24.193359,49.414452 C 24.482417,49.328519 24.70019,49.185941 24.84668,48.986717 C 24.993158,48.787504 25.0664,48.537504 25.066406,48.236717 C 25.0664,47.951568 24.998041,47.700591 24.861328,47.483788 C 24.724604,47.266998 24.529292,47.118561 24.275391,47.038475 C 24.02148,46.958404 23.585933,46.918365 22.96875,46.918358 L 21.251953,46.918358 L 21.251953,49.514061 z M 21.251953,53.480858 L 23.390625,53.480858 C 23.757808,53.480859 24.01562,53.467187 24.164063,53.439842 C 24.425776,53.392968 24.644526,53.314843 24.820313,53.205467 C 24.996088,53.096094 25.140619,52.936914 25.253906,52.727928 C 25.367181,52.518946 25.423822,52.277735 25.423828,52.004295 C 25.423822,51.683986 25.341791,51.405666 25.177734,51.169334 C 25.013666,50.93301 24.786127,50.766994 24.495117,50.671288 C 24.204097,50.575588 23.785152,50.527737 23.238281,50.527733 L 21.251953,50.527733 L 21.251953,53.480858 z "
       id="text5052" />
    <g
       id="g2207"
       transform="translate(-0.744618,-25.61719)">
      <text
         xml:space="preserve"
         style="font-size:12px;font-style:normal;font-weight:normal;fill:black;fill-opacity:1;stroke:none;stroke-width:1px;stroke-linecap:butt;stroke-linejoin:miter;stroke-opacity:1;font-family:Bitstream Vera Sans"
         x="14.402344"
         y="99.853516"
         id="text5044"><tspan
           sodipodi:role="line"
           id="tspan5046"
           x="14.402344"
           y="99.853516">C</tspan></text>
      <text
         xml:space="preserve"
         style="font-size:7.19999981px;font-style:normal;font-weight:normal;fill:black;fill-opacity:1;stroke:none;stroke-width:1px;stroke-linecap:butt;stroke-linejoin:miter;stroke-opacity:1;font-family:Bitstream Vera Sans"
         x="22.599609"
         y="100"
         id="text5056"><tspan
           sodipodi:role="line"
           id="tspan5058"
           x="22.599609"
           y="100">in</tspan></text>
    </g>
    <path
       style="font-size:12px;font-style:normal;font-weight:normal;fill:black;fill-opacity:1;stroke:none;stroke-width:1px;stroke-linecap:butt;stroke-linejoin:miter;stroke-opacity:1;font-family:Bitstream Vera Sans"
       d="M 283.6398,36.841797 L 284.77652,37.128906 C 284.53823,38.062502 284.10952,38.774415 283.49039,39.264648 C 282.87124,39.754883 282.1144,40 281.21988,40 C 280.29409,40 279.54117,39.811523 278.96109,39.43457 C 278.38101,39.057618 277.9396,38.51172 277.63687,37.796875 C 277.33414,37.082034 277.18277,36.314457 277.18277,35.494141 C 277.18277,34.599615 277.35367,33.819342 277.69547,33.15332 C 278.03726,32.487312 278.52359,31.981453 279.15445,31.635742 C 279.78531,31.290048 280.47964,31.117196 281.23746,31.117188 C 282.09683,31.117196 282.81948,31.335946 283.40543,31.773438 C 283.99136,32.210945 284.39956,32.826179 284.63004,33.619141 L 283.51089,33.882813 C 283.31167,33.257819 283.02261,32.802741 282.64371,32.517578 C 282.2648,32.232429 281.78823,32.089852 281.21402,32.089844 C 280.55386,32.089852 280.0021,32.248054 279.55875,32.564453 C 279.11538,32.880866 278.80386,33.305671 278.62418,33.838867 C 278.44449,34.372076 278.35464,34.92188 278.35464,35.488281 C 278.35464,36.218754 278.46109,36.856448 278.67398,37.401367 C 278.88687,37.946291 279.21792,38.353517 279.66714,38.623047 C 280.11636,38.892579 280.60269,39.027345 281.12613,39.027344 C 281.76284,39.027345 282.3019,38.843751 282.74332,38.476563 C 283.18472,38.109377 283.48354,37.564455 283.6398,36.841797 L 283.6398,36.841797 z "
       id="text5068" />
    <path
       style="font-size:12px;font-style:normal;font-weight:normal;fill:black;fill-opacity:1;stroke:none;stroke-width:1px;stroke-linecap:butt;stroke-linejoin:miter;stroke-opacity:1;font-family:Bitstream Vera Sans"
       d="M 277.27649,72.09375 L 278.34875,72 C 278.39953,72.42969 278.5177,72.782229 278.70325,73.057617 C 278.88879,73.333009 279.17688,73.555665 279.5675,73.725586 C 279.95813,73.895509 280.39758,73.98047 280.88586,73.980469 C 281.31945,73.98047 281.70227,73.916017 282.0343,73.787109 C 282.36633,73.658204 282.6134,73.481447 282.77551,73.256836 C 282.93762,73.032228 283.01867,72.787111 283.01868,72.521484 C 283.01867,72.251956 282.94055,72.016604 282.7843,71.81543 C 282.62805,71.614261 282.37023,71.445316 282.01086,71.308594 C 281.78039,71.218754 281.27063,71.079105 280.48157,70.889648 C 279.6925,70.700199 279.13977,70.521489 278.82336,70.353516 C 278.41321,70.138677 278.10754,69.872075 277.90637,69.553711 C 277.7052,69.235357 277.60461,68.878912 277.60461,68.484375 C 277.60461,68.050788 277.72766,67.645515 277.97375,67.268555 C 278.21985,66.89161 278.57922,66.605477 279.05188,66.410156 C 279.52453,66.214852 280.04992,66.117196 280.62805,66.117188 C 281.26477,66.117196 281.82629,66.219735 282.31262,66.424805 C 282.79894,66.629891 283.17297,66.931649 283.43469,67.330078 C 283.6964,67.728523 283.83703,68.179694 283.85657,68.683594 L 282.76672,68.765625 C 282.70812,68.222663 282.50988,67.812507 282.172,67.535156 C 281.8341,67.25782 281.33508,67.119148 280.67493,67.119141 C 279.98742,67.119148 279.48645,67.245125 279.172,67.49707 C 278.85754,67.749031 278.70032,68.052741 278.70032,68.408203 C 278.70032,68.716803 278.81164,68.970709 279.0343,69.169922 C 279.25305,69.369146 279.82434,69.573247 280.74817,69.782227 C 281.67199,69.991216 282.30578,70.173833 282.64954,70.330078 C 283.14953,70.560551 283.51867,70.852543 283.75696,71.206055 C 283.99523,71.559574 284.11437,71.9668 284.11438,72.427734 C 284.11437,72.884768 283.98351,73.315431 283.7218,73.719727 C 283.46008,74.124024 283.0841,74.438477 282.59387,74.663086 C 282.10363,74.887695 281.55188,75 280.9386,75 C 280.16125,75 279.50988,74.886719 278.9845,74.660156 C 278.4591,74.433594 278.047,74.092774 277.74817,73.637695 C 277.44934,73.182619 277.29211,72.667971 277.27649,72.09375 L 277.27649,72.09375 z "
       id="text5072" />
    <path
       style="font-size:7.19999981px;font-style:normal;font-weight:normal;fill:black;fill-opacity:1;stroke:none;stroke-width:1px;stroke-linecap:butt;stroke-linejoin:miter;stroke-opacity:1;font-family:Bitstream Vera Sans"
       d="M 285.27578,38.171095 C 285.27577,37.479691 285.46796,36.967582 285.85234,36.634766 C 286.17343,36.358208 286.56484,36.219927 287.02656,36.219923 C 287.53984,36.219927 287.95937,36.38809 288.28515,36.724415 C 288.61093,37.060746 288.77382,37.525394 288.77382,38.11836 C 288.77382,38.59883 288.70175,38.97676 288.55761,39.252149 C 288.41347,39.52754 288.2037,39.741407 287.92831,39.893751 C 287.65292,40.046095 287.35234,40.122266 287.02656,40.122266 C 286.5039,40.122266 286.08144,39.954688 285.75917,39.619532 C 285.43691,39.284377 285.27577,38.801565 285.27578,38.171095 L 285.27578,38.171095 z M 285.92617,38.171095 C 285.92616,38.649221 286.03046,39.007228 286.23906,39.245118 C 286.44765,39.483009 286.71015,39.601954 287.02656,39.601954 C 287.34062,39.601954 287.60194,39.482423 287.81054,39.24336 C 288.01913,39.004299 288.12343,38.639846 288.12343,38.150001 C 288.12343,37.688284 288.01855,37.33848 287.80878,37.100587 C 287.59901,36.862699 287.33827,36.743754 287.02656,36.743751 C 286.71015,36.743754 286.44765,36.862113 286.23906,37.098829 C 286.03046,37.33555 285.92616,37.692972 285.92617,38.171095 L 285.92617,38.171095 z M 291.96601,40.037891 L 291.96601,39.489454 C 291.67538,39.911329 291.28046,40.122266 290.78124,40.122266 C 290.56093,40.122266 290.35527,40.080079 290.16425,39.995704 C 289.97324,39.911329 289.83144,39.805274 289.73886,39.67754 C 289.64628,39.549806 289.58124,39.393361 289.54374,39.208204 C 289.51796,39.083986 289.50507,38.887111 289.50507,38.617579 L 289.50507,36.304298 L 290.13788,36.304298 L 290.13788,38.375001 C 290.13788,38.705471 290.15077,38.928127 290.17656,39.04297 C 290.2164,39.209377 290.30077,39.340041 290.42968,39.434962 C 290.55859,39.529884 290.71796,39.577345 290.90781,39.577345 C 291.09765,39.577345 291.27577,39.528712 291.44218,39.431446 C 291.60859,39.334181 291.72636,39.201759 291.7955,39.03418 C 291.86464,38.866604 291.89921,38.62344 291.89921,38.304688 L 291.89921,36.304298 L 292.53203,36.304298 L 292.53203,40.037891 L 291.96601,40.037891 z M 294.90859,39.471876 L 294.99999,40.03086 C 294.82187,40.06836 294.66249,40.08711 294.52187,40.08711 C 294.29218,40.08711 294.11406,40.050782 293.98749,39.978126 C 293.86093,39.90547 293.77187,39.809962 293.72031,39.691602 C 293.66874,39.573243 293.64296,39.32422 293.64296,38.944532 L 293.64296,36.796485 L 293.1789,36.796485 L 293.1789,36.304298 L 293.64296,36.304298 L 293.64296,35.379688 L 294.27226,35.000001 L 294.27226,36.304298 L 294.90859,36.304298 L 294.90859,36.796485 L 294.27226,36.796485 L 294.27226,38.979688 C 294.27226,39.160158 294.28339,39.276173 294.30566,39.327735 C 294.32792,39.379298 294.36425,39.420314 294.41464,39.450782 C 294.46503,39.481251 294.5371,39.496486 294.63085,39.496485 C 294.70116,39.496486 294.79374,39.488283 294.90859,39.471876 L 294.90859,39.471876 z "
       id="text5076" />
    <path
       style="font-size:7.19999981px;font-style:normal;font-weight:normal;text-align:center;line-height:125%;writing-mode:lr-tb;text-anchor:middle;fill:black;fill-opacity:1;stroke:none;stroke-width:1px;stroke-linecap:butt;stroke-linejoin:miter;stroke-opacity:1;font-family:Bitstream Vera Sans"
       d="M 71.071092,39.537918 L 71.071092,34.384012 L 71.753124,34.384012 L 71.753124,36.500418 L 74.43203,36.500418 L 74.43203,34.384012 L 75.114061,34.384012 L 75.114061,39.537918 L 74.43203,39.537918 L 74.43203,37.108621 L 71.753124,37.108621 L 71.753124,39.537918 L 71.071092,39.537918 z M 75.687108,39.537918 L 77.666405,34.384012 L 78.401171,34.384012 L 80.510545,39.537918 L 79.733592,39.537918 L 79.132421,37.976981 L 76.977342,37.976981 L 76.411327,39.537918 L 75.687108,39.537918 z M 77.174217,37.421512 L 78.921483,37.421512 L 78.383592,35.994168 C 78.219527,35.560578 78.097653,35.204329 78.017967,34.925418 C 77.95234,35.255891 77.859762,35.584016 77.740233,35.909793 L 77.174217,37.421512 z M 81.034374,39.537918 L 81.034374,34.384012 L 81.716405,34.384012 L 81.716405,38.929715 L 84.254686,38.929715 L 84.254686,39.537918 L 81.034374,39.537918 z M 85.105467,39.537918 L 85.105467,34.384012 L 88.58242,34.384012 L 88.58242,34.992215 L 85.787498,34.992215 L 85.787498,36.588309 L 88.206248,36.588309 L 88.206248,37.196512 L 85.787498,37.196512 L 85.787498,39.537918 L 85.105467,39.537918 z M 67.080858,48.537918 L 69.060155,43.384012 L 69.794921,43.384012 L 71.904296,48.537918 L 71.127342,48.537918 L 70.526171,46.97698 L 68.371093,46.97698 L 67.805077,48.537918 L 67.080858,48.537918 z M 68.567968,46.421512 L 70.315233,46.421512 L 69.777342,44.994168 C 69.613277,44.560578 69.491403,44.204329 69.411717,43.925418 C 69.34609,44.255891 69.253512,44.584016 69.133983,44.909793 L 68.567968,46.421512 z M 72.456249,48.537918 L 72.456249,43.384012 L 74.231639,43.384012 C 74.632418,43.384017 74.938277,43.408626 75.149217,43.45784 C 75.444526,43.525814 75.696479,43.64886 75.905077,43.82698 C 76.176947,44.056672 76.380267,44.350227 76.515038,44.707645 C 76.649798,45.06507 76.717181,45.473468 76.717186,45.93284 C 76.717181,46.324248 76.671478,46.671123 76.580077,46.973465 C 76.488666,47.27581 76.371478,47.526005 76.228514,47.724051 C 76.085541,47.922098 75.929096,48.077957 75.759178,48.191629 C 75.589253,48.305301 75.384175,48.391434 75.143944,48.450027 C 74.903706,48.508621 74.62773,48.537918 74.316014,48.537918 L 72.456249,48.537918 z M 73.13828,47.929715 L 74.23867,47.929715 C 74.578511,47.929715 74.845113,47.898075 75.038475,47.834793 C 75.231831,47.771512 75.385933,47.68245 75.50078,47.567605 C 75.662495,47.405888 75.788471,47.188505 75.878709,46.915457 C 75.96894,46.642412 76.014057,46.311358 76.014061,45.922293 C 76.014057,45.383234 75.92558,44.968976 75.748631,44.67952 C 75.571675,44.390071 75.356636,44.196125 75.103514,44.097684 C 74.920699,44.027376 74.626558,43.992219 74.221092,43.992215 L 73.13828,43.992215 L 73.13828,47.929715 z M 77.659374,48.537918 L 77.659374,43.384012 L 79.434764,43.384012 C 79.835543,43.384017 80.141402,43.408626 80.352342,43.45784 C 80.647651,43.525814 80.899604,43.64886 81.108202,43.82698 C 81.380072,44.056672 81.583392,44.350227 81.718163,44.707645 C 81.852923,45.06507 81.920306,45.473468 81.920311,45.93284 C 81.920306,46.324248 81.874603,46.671123 81.783202,46.973465 C 81.691791,47.27581 81.574603,47.526005 81.431639,47.724051 C 81.288666,47.922098 81.132221,48.077957 80.962303,48.191629 C 80.792378,48.305301 80.5873,48.391434 80.347069,48.450027 C 80.106831,48.508621 79.830855,48.537918 79.519139,48.537918 L 77.659374,48.537918 z M 78.341405,47.929715 L 79.441795,47.929715 C 79.781636,47.929715 80.048238,47.898075 80.2416,47.834793 C 80.434956,47.771512 80.589058,47.68245 80.703905,47.567605 C 80.86562,47.405888 80.991596,47.188505 81.081834,46.915457 C 81.172065,46.642412 81.217182,46.311358 81.217186,45.922293 C 81.217182,45.383234 81.128705,44.968976 80.951756,44.67952 C 80.7748,44.390071 80.559761,44.196125 80.306639,44.097684 C 80.123824,44.027376 79.829683,43.992219 79.424217,43.992215 L 78.341405,43.992215 L 78.341405,47.929715 z M 82.876561,48.537918 L 82.876561,43.384012 L 86.603124,43.384012 L 86.603124,43.992215 L 83.558592,43.992215 L 83.558592,45.57073 L 86.409764,45.57073 L 86.409764,46.175418 L 83.558592,46.175418 L 83.558592,47.929715 L 86.722655,47.929715 L 86.722655,48.537918 L 82.876561,48.537918 z M 87.68242,48.537918 L 87.68242,43.384012 L 89.967576,43.384012 C 90.426948,43.384017 90.776167,43.430306 91.015233,43.522879 C 91.254291,43.615462 91.445306,43.778938 91.58828,44.013309 C 91.731244,44.247688 91.802728,44.506672 91.802733,44.790262 C 91.802728,45.15589 91.684369,45.464093 91.447655,45.714871 C 91.210932,45.965655 90.845307,46.12503 90.35078,46.192996 C 90.531245,46.279717 90.668354,46.365264 90.762108,46.449637 C 90.961323,46.632451 91.149994,46.860966 91.328123,47.135184 L 92.224608,48.537918 L 91.366795,48.537918 L 90.684764,47.465652 C 90.485542,47.156279 90.32148,46.91956 90.192576,46.755496 C 90.063667,46.591435 89.948238,46.476592 89.846287,46.410965 C 89.744332,46.345342 89.640621,46.299639 89.535155,46.273855 C 89.457809,46.257451 89.331246,46.249248 89.155467,46.249246 L 88.364452,46.249246 L 88.364452,48.537918 L 87.68242,48.537918 z M 88.364452,45.658621 L 89.830467,45.658621 C 90.142183,45.658624 90.385933,45.626397 90.561717,45.561941 C 90.737495,45.497491 90.871088,45.394366 90.962498,45.252566 C 91.053901,45.110773 91.099604,44.956672 91.099608,44.790262 C 91.099604,44.546516 91.011127,44.346125 90.834178,44.18909 C 90.657221,44.032063 90.377729,43.953548 89.995701,43.953543 L 88.364452,43.953543 L 88.364452,45.658621 z "
       id="text2158" />
    <path
       style="fill:none;fill-opacity:1;stroke:black;stroke-width:2;stroke-miterlimit:4;stroke-dashoffset:0;stroke-opacity:1"
       d="M 49.5,20.5 L 109.5,20.5 L 109.5,60.529346 L 49.5,60.529346 L 49.5,20.5 z "
       id="rect2164" />
    <path
       style="font-size:12px;font-style:normal;font-weight:normal;fill:black;fill-opacity:1;stroke:none;stroke-width:1px;stroke-linecap:butt;stroke-linejoin:miter;stroke-opacity:1;font-family:Bitstream Vera Sans"
       d="M 53.931641,34.762527 L 57.230469,26.172684 L 58.455078,26.172684 L 61.970703,34.762527 L 60.675781,34.762527 L 59.673828,32.160965 L 56.082031,32.160965 L 55.138672,34.762527 L 53.931641,34.762527 z M 56.410156,31.235184 L 59.322266,31.235184 L 58.425781,28.856277 C 58.15234,28.133628 57.949215,27.539878 57.816406,27.075027 C 57.707027,27.625816 57.552731,28.17269 57.353516,28.715652 L 56.410156,31.235184 z "
       id="text2166" />
    <path
       style="font-size:12px;font-style:normal;font-weight:normal;fill:black;fill-opacity:1;stroke:none;stroke-width:1px;stroke-linecap:butt;stroke-linejoin:miter;stroke-opacity:1;font-family:Bitstream Vera Sans"
       d="M 54.207031,56.037926 L 54.207031,47.448082 L 57.429688,47.448082 C 58.085933,47.448091 58.612299,47.535005 59.008789,47.708824 C 59.405267,47.88266 59.715814,48.150238 59.94043,48.511559 C 60.165032,48.872894 60.277337,49.250823 60.277344,49.645348 C 60.277337,50.012541 60.177728,50.358244 59.978516,50.682457 C 59.77929,51.006681 59.478509,51.268399 59.076172,51.467613 C 59.595697,51.619961 59.995111,51.879727 60.274414,52.24691 C 60.553704,52.614101 60.693352,53.047694 60.693359,53.547691 C 60.693352,53.950037 60.608391,54.32406 60.438477,54.669762 C 60.268548,55.015466 60.058587,55.282067 59.808594,55.469566 C 59.558588,55.657067 59.245111,55.798668 58.868164,55.894371 C 58.491206,55.990074 58.029292,56.037926 57.482422,56.037926 L 54.207031,56.037926 z M 55.34375,51.057457 L 57.201172,51.057457 C 57.705074,51.057462 58.066402,51.024259 58.285156,50.957848 C 58.574214,50.871915 58.791987,50.729337 58.938477,50.530113 C 59.084955,50.3309 59.158197,50.0809 59.158203,49.780113 C 59.158197,49.494964 59.089838,49.243987 58.953125,49.027184 C 58.816401,48.810394 58.621088,48.661957 58.367188,48.581871 C 58.113276,48.5018 57.67773,48.461761 57.060547,48.461754 L 55.34375,48.461754 L 55.34375,51.057457 z M 55.34375,55.024254 L 57.482422,55.024254 C 57.849605,55.024255 58.107417,55.010583 58.255859,54.983238 C 58.517573,54.936364 58.736323,54.858239 58.912109,54.748863 C 59.087885,54.63949 59.232416,54.48031 59.345703,54.271324 C 59.458978,54.062342 59.515619,53.821131 59.515625,53.547691 C 59.515619,53.227382 59.433588,52.949062 59.269531,52.71273 C 59.105463,52.476406 58.877924,52.31039 58.586914,52.214684 C 58.295893,52.118984 57.876949,52.071133 57.330078,52.071129 L 55.34375,52.071129 L 55.34375,55.024254 z "
       id="text2170" />
    <path
       style="font-size:12px;font-style:normal;font-weight:normal;fill:black;fill-opacity:1;stroke:none;stroke-width:1px;stroke-linecap:butt;stroke-linejoin:miter;stroke-opacity:1;font-family:Bitstream Vera Sans"
       d="M 97.981865,52.09375 L 99.054131,52 C 99.10491,52.42969 99.223074,52.782229 99.408623,53.057617 C 99.594167,53.333009 99.882253,53.555665 100.27288,53.725586 C 100.6635,53.895509 101.10296,53.98047 101.59124,53.980469 C 102.02483,53.98047 102.40764,53.916017 102.73968,53.787109 C 103.0717,53.658204 103.31877,53.481447 103.48089,53.256836 C 103.64299,53.032228 103.72405,52.787111 103.72405,52.521484 C 103.72405,52.251956 103.64592,52.016604 103.48968,51.81543 C 103.33342,51.614261 103.07561,51.445316 102.71624,51.308594 C 102.48577,51.218754 101.976,51.079105 101.18694,50.889648 C 100.39788,50.700199 99.845144,50.521489 99.52874,50.353516 C 99.118582,50.138677 98.812918,49.872075 98.611748,49.553711 C 98.410575,49.235357 98.309989,48.878912 98.30999,48.484375 C 98.309989,48.050788 98.433036,47.645515 98.679131,47.268555 C 98.925223,46.89161 99.284597,46.605477 99.757256,46.410156 C 100.22991,46.214852 100.7553,46.117196 101.33343,46.117188 C 101.97014,46.117196 102.53166,46.219735 103.018,46.424805 C 103.50432,46.629891 103.87834,46.931649 104.14007,47.330078 C 104.40178,47.728523 104.5424,48.179694 104.56194,48.683594 L 103.4721,48.765625 C 103.4135,48.222663 103.21526,47.812507 102.87737,47.535156 C 102.53948,47.25782 102.04045,47.119148 101.3803,47.119141 C 100.6928,47.119148 100.19182,47.245125 99.877373,47.49707 C 99.562917,47.749031 99.405691,48.052741 99.405693,48.408203 C 99.405691,48.716803 99.517019,48.970709 99.739677,49.169922 C 99.958425,49.369146 100.52971,49.573247 101.45354,49.782227 C 102.37737,49.991216 103.01116,50.173833 103.35491,50.330078 C 103.85491,50.560551 104.22405,50.852543 104.46233,51.206055 C 104.70061,51.559574 104.81975,51.9668 104.81976,52.427734 C 104.81975,52.884768 104.68889,53.315431 104.42718,53.719727 C 104.16545,54.124024 103.78948,54.438477 103.29925,54.663086 C 102.80901,54.887695 102.25725,55 101.64397,55 C 100.86663,55 100.21526,54.886719 99.689873,54.660156 C 99.16448,54.433594 98.752371,54.092774 98.453545,53.637695 C 98.154716,53.182619 97.997489,52.667971 97.981865,52.09375 L 97.981865,52.09375 z "
       id="text2174" />
    <path
       style="font-size:12px;font-style:normal;font-weight:normal;fill:black;fill-opacity:1;stroke:none;stroke-width:1px;stroke-linecap:butt;stroke-linejoin:miter;stroke-opacity:1;font-family:Bitstream Vera Sans"
       d="M 103.86328,30.724609 L 105,31.011719 C 104.76171,31.945314 104.333,32.657228 103.71387,33.147461 C 103.09472,33.637695 102.33789,33.882812 101.44336,33.882813 C 100.51757,33.882812 99.764645,33.694336 99.18457,33.317383 C 98.60449,32.94043 98.163085,32.394533 97.860352,31.679688 C 97.557616,30.964847 97.406249,30.197269 97.40625,29.376953 C 97.406249,28.482427 97.577148,27.702154 97.918945,27.036133 C 98.260741,26.370125 98.747068,25.864266 99.37793,25.518555 C 100.00879,25.17286 100.70312,25.000009 101.46094,25 C 102.32031,25.000009 103.04296,25.218759 103.62891,25.65625 C 104.21484,26.093758 104.62304,26.708991 104.85352,27.501953 L 103.73438,27.765625 C 103.53515,27.140632 103.24609,26.685554 102.86719,26.400391 C 102.48828,26.115242 102.01171,25.972664 101.4375,25.972656 C 100.77734,25.972664 100.22558,26.130867 99.782227,26.447266 C 99.338865,26.763679 99.027342,27.188483 98.847656,27.72168 C 98.667967,28.254888 98.578123,28.804692 98.578125,29.371094 C 98.578123,30.101566 98.684568,30.739261 98.897461,31.28418 C 99.110349,31.829103 99.441404,32.23633 99.890625,32.505859 C 100.33984,32.775392 100.82617,32.910157 101.34961,32.910156 C 101.98632,32.910157 102.52538,32.726564 102.9668,32.359375 C 103.4082,31.992189 103.70702,31.447268 103.86328,30.724609 L 103.86328,30.724609 z "
       id="text2178" />
    <path
       style="fill:none;fill-opacity:0.75;fill-rule:evenodd;stroke:black;stroke-width:1px;stroke-linecap:butt;stroke-linejoin:miter;stroke-opacity:1"
       d="M 49.488281,50.769922 L 29.488281,50.769922"
       id="path2203" />
    <path
       style="fill:none;fill-opacity:0.75;fill-rule:evenodd;stroke:black;stroke-width:1px;stroke-linecap:butt;stroke-linejoin:miter;stroke-opacity:1"
       d="M 129.98828,50.5 L 109.98828,50.5"
       id="path2205" />
    <path
       style="fill:none;fill-rule:evenodd;stroke:black;stroke-width:1.00000024px;stroke-linecap:butt;stroke-linejoin:miter;stroke-opacity:1"
       d="M 29.5,70.5 L 130.8767,70.5"
       id="path2215" />
    <path
       style="fill:none;fill-rule:evenodd;stroke:black;stroke-width:1px;stroke-linecap:butt;stroke-linejoin:miter;stroke-opacity:1"
       d="M 109.5,30.5 L 239.5,30.5"
       id="path2217" />
    <path
       style="fill:none;fill-rule:evenodd;stroke:black;stroke-width:1px;stroke-linecap:butt;stroke-linejoin:miter;stroke-opacity:1"
       d="M 239.5,40.5 L 219.5,40.5 L 209.5,50.5 L 189.5,50.5"
       id="path2219" />
    <path
       transform="translate(148.25,-73.25)"
       style="fill:black;fill-opacity:1;stroke:none;stroke-width:2;stroke-miterlimit:4;stroke-dashoffset:0;stroke-opacity:1"
       d="M 127.5,143.75 C 127.5,144.44 126.94,145 126.25,145 C 125.56,145 125,144.44 125,143.75 C 125,143.06 125.56,142.5 126.25,142.5 C 126.94,142.5 127.5,143.06 127.5,143.75 z "
       id="path2223" />
    <path
       style="fill:none;fill-rule:evenodd;stroke:black;stroke-width:1px;stroke-linecap:butt;stroke-linejoin:miter;stroke-opacity:1"
       d="M 189.5,70.5 C 274.5,70.5 274.5,70.5 274.5,70.5"
       id="path2225" />
    <path
       style="fill:none;fill-rule:evenodd;stroke:black;stroke-width:1px;stroke-linecap:butt;stroke-linejoin:miter;stroke-opacity:1"
       d="M 259.5,35.5 L 274.5,35.5"
       id="path2227" />
  </g>
</svg>
